<svg
    xmlns="http://www.w3.org/2000/svg"
    width="25"
    height="25"
    viewBox="0 0 30 30"
>
    <g
    id="Group_119"
    data-name="Group 119"
    transform="translate(-607 -525)"
    >
    <circle
        id="Ellipse_8"
        data-name="Ellipse 8"
        cx="15"
        cy="15"
        r="15"
        transform="translate(607 525)"
        fill="#333"
    />
    <path
        id="Path_39"
        data-name="Path 39"
        d="M16.6,4.8,15.067,6.339a.4.4,0,0,1-.566,0l-3.7-3.7a.4.4,0,0,1,0-.566L12.34.542a1.6,1.6,0,0,1,2.261,0l2,2A1.6,1.6,0,0,1,16.6,4.8ZM9.486,3.4.742,12.14.036,16.186a.8.8,0,0,0,.926.926L5.008,16.4l8.744-8.744a.4.4,0,0,0,0-.566l-3.7-3.7a.4.4,0,0,0-.569,0Zm-5.331,8a.464.464,0,0,1,0-.659L9.283,5.6a.466.466,0,0,1,.659.659L4.815,11.391a.464.464,0,0,1-.659,0Zm-1.2,2.8h1.6V15.4L2.4,15.776,1.368,14.741l.376-2.148H2.953Z"
        transform="translate(613.796 530.974)"
        fill="#fff"
    />
    </g>
</svg>