<svg xmlns="http://www.w3.org/2000/svg" width="40" height="40" viewBox="0 0 40 40">
  <path id="twitter" d="M23.724,5.157a20,20,0,1,0,20,20A20,20,0,0,0,23.724,5.157ZM33.8,21.125c.011.216.015.433.015.652A14.336,14.336,0,0,1,11.746,33.854a10.307,10.307,0,0,0,1.2.07,10.112,10.112,0,0,0,6.26-2.157,5.047,5.047,0,0,1-4.708-3.5,4.923,4.923,0,0,0,.948.09,5.009,5.009,0,0,0,1.328-.176,5.044,5.044,0,0,1-4.044-4.942c0-.022,0-.043,0-.065a5.023,5.023,0,0,0,2.283.631,5.047,5.047,0,0,1-1.56-6.73,14.31,14.31,0,0,0,10.39,5.266,5.043,5.043,0,0,1,8.588-4.6,10.067,10.067,0,0,0,3.2-1.223,5.055,5.055,0,0,1-2.217,2.788,10.077,10.077,0,0,0,2.9-.794A10.183,10.183,0,0,1,33.8,21.125Z" transform="translate(-3.723 -5.157)"/>
</svg>
